<svg xmlns="http://www.w3.org/2000/svg" viewBox="0 0 231 29.79"><defs><style>.cls-1{fill:#00d1b2;}</style></defs><g id="Capa_2" data-name="Capa 2"><g id="Capa_1-2" data-name="Capa 1"><path d="M13.5,20.91a2.33,2.33,0,0,0-.91-2,11.65,11.65,0,0,0-3.3-1.47,23.31,23.31,0,0,1-3.77-1.52q-3.78-2-3.78-5.51a5.4,5.4,0,0,1,1-3.21A6.66,6.66,0,0,1,5.67,5a11.15,11.15,0,0,1,4.26-.79,10.08,10.08,0,0,1,4.25.86,6.81,6.81,0,0,1,2.89,2.44,6.43,6.43,0,0,1,1,3.57H13.52a3,3,0,0,0-1-2.37,3.92,3.92,0,0,0-2.7-.85,4.24,4.24,0,0,0-2.61.71,2.24,2.24,0,0,0-.93,1.87,2.12,2.12,0,0,0,1.09,1.81,12.43,12.43,0,0,0,3.21,1.38,13.79,13.79,0,0,1,5.69,2.91,5.82,5.82,0,0,1,1.79,4.34,5.35,5.35,0,0,1-2.18,4.52A9.61,9.61,0,0,1,10,27a11.3,11.3,0,0,1-4.67-.94,7.37,7.37,0,0,1-3.21-2.57,6.57,6.57,0,0,1-1.11-3.78h4.6q0,3.67,4.39,3.67a4.3,4.3,0,0,0,2.55-.66A2.15,2.15,0,0,0,13.5,20.91Z" transform="translate(-1.05 -3.3)"/><path d="M27.65,6.17v4.05h2.83v3.24H27.65V21.7A1.92,1.92,0,0,0,28,23a1.73,1.73,0,0,0,1.34.4,7.17,7.17,0,0,0,1.3-.11v3.34A9,9,0,0,1,28,27c-3.1,0-4.67-1.56-4.74-4.68v-8.9H20.83V10.22h2.41V6.17Z" transform="translate(-1.05 -3.3)"/><path d="M44.29,25.06a5.53,5.53,0,0,1-4.51,2,5.23,5.23,0,0,1-4.06-1.53A6.49,6.49,0,0,1,34.3,21V10.22h4.41V20.9c0,1.72.78,2.59,2.35,2.59a3.19,3.19,0,0,0,3.08-1.56V10.22h4.42V26.74H44.41Z" transform="translate(-1.05 -3.3)"/><path d="M52.67,18.36a9.89,9.89,0,0,1,1.74-6.15,5.59,5.59,0,0,1,4.73-2.29,5.07,5.07,0,0,1,4,1.8V3.3h4.42V26.74h-4L63.36,25A5.21,5.21,0,0,1,59.11,27a5.57,5.57,0,0,1-4.67-2.3A10.23,10.23,0,0,1,52.67,18.36Zm4.41.33a6.54,6.54,0,0,0,.81,3.56,2.65,2.65,0,0,0,2.35,1.24,3,3,0,0,0,2.89-1.73V15.23a2.92,2.92,0,0,0-2.86-1.73C58.15,13.5,57.08,15.23,57.08,18.69Z" transform="translate(-1.05 -3.3)"/><path d="M72.41,6a2.18,2.18,0,0,1,.66-1.63,2.87,2.87,0,0,1,3.61,0A2.15,2.15,0,0,1,77.35,6a2.15,2.15,0,0,1-.68,1.65,2.82,2.82,0,0,1-3.58,0A2.15,2.15,0,0,1,72.41,6Zm4.68,20.79H72.67V10.22h4.42Z" transform="translate(-1.05 -3.3)"/><path d="M81.51,18.33A9.79,9.79,0,0,1,82.45,14a6.92,6.92,0,0,1,2.73-3,8,8,0,0,1,4.13-1.05,7.53,7.53,0,0,1,5.45,2,8.22,8.22,0,0,1,2.36,5.56l0,1.13A8.64,8.64,0,0,1,95,24.74a8.21,8.21,0,0,1-11.39,0,8.76,8.76,0,0,1-2.13-6.22Zm4.41.31a6.17,6.17,0,0,0,.88,3.6,3.17,3.17,0,0,0,5,0,6.74,6.74,0,0,0,.9-3.93,6.13,6.13,0,0,0-.9-3.58,3,3,0,0,0-2.53-1.27,2.88,2.88,0,0,0-2.51,1.27A6.86,6.86,0,0,0,85.92,18.64Z" transform="translate(-1.05 -3.3)"/><path class="cls-1" d="M105.39,10.22l.14,1.91a5.78,5.78,0,0,1,4.75-2.21,4.76,4.76,0,0,1,3.9,1.54,7.16,7.16,0,0,1,1.32,4.61V26.74h-4.41V16.18a2.89,2.89,0,0,0-.61-2,2.76,2.76,0,0,0-2-.64,3,3,0,0,0-2.8,1.59V26.74h-4.41V10.22Z" transform="translate(-1.05 -3.3)"/><path class="cls-1" d="M127.91,27A8.09,8.09,0,0,1,122,24.81a7.9,7.9,0,0,1-2.28-5.93v-.43a10,10,0,0,1,1-4.45,7,7,0,0,1,2.73-3,7.59,7.59,0,0,1,4-1.06,6.83,6.83,0,0,1,5.33,2.14,8.65,8.65,0,0,1,1.95,6v1.8H124.18a4.08,4.08,0,0,0,1.29,2.6,3.92,3.92,0,0,0,2.73,1,4.78,4.78,0,0,0,4-1.85l2.17,2.42a6.62,6.62,0,0,1-2.69,2.19A8.72,8.72,0,0,1,127.91,27Zm-.51-13.57a2.78,2.78,0,0,0-2.13.89,4.64,4.64,0,0,0-1,2.55h6.13v-.35a3.27,3.27,0,0,0-.79-2.28A2.84,2.84,0,0,0,127.4,13.47Z" transform="translate(-1.05 -3.3)"/><path class="cls-1" d="M153.53,18.63a9.91,9.91,0,0,1-1.73,6.11,5.54,5.54,0,0,1-4.68,2.3,5.14,5.14,0,0,1-4-1.74v7.78h-4.41V10.22h4.09l.15,1.62a5.19,5.19,0,0,1,4.18-1.92,5.58,5.58,0,0,1,4.75,2.26,10.15,10.15,0,0,1,1.69,6.22Zm-4.41-.32a6.43,6.43,0,0,0-.82-3.55,2.64,2.64,0,0,0-2.37-1.26,2.89,2.89,0,0,0-2.85,1.59v6.76A2.94,2.94,0,0,0,146,23.49Q149.13,23.49,149.12,18.31Z" transform="translate(-1.05 -3.3)"/><path class="cls-1" d="M163,6.17v4.05h2.82v3.24H163V21.7a2,2,0,0,0,.35,1.31,1.75,1.75,0,0,0,1.35.4A7.05,7.05,0,0,0,166,23.3v3.34a8.86,8.86,0,0,1-2.67.4q-4.64,0-4.73-4.68v-8.9h-2.41V10.22h2.41V6.17Z" transform="translate(-1.05 -3.3)"/><path class="cls-1" d="M179.65,25.06a5.55,5.55,0,0,1-4.52,2,5.2,5.2,0,0,1-4-1.53A6.49,6.49,0,0,1,169.65,21V10.22h4.41V20.9c0,1.72.79,2.59,2.35,2.59a3.19,3.19,0,0,0,3.09-1.56V10.22h4.42V26.74h-4.15Z" transform="translate(-1.05 -3.3)"/><path class="cls-1" d="M192.78,10.22l.13,1.91a5.79,5.79,0,0,1,4.75-2.21,4.8,4.8,0,0,1,3.91,1.54,7.22,7.22,0,0,1,1.31,4.61V26.74h-4.41V16.18a2.89,2.89,0,0,0-.61-2,2.76,2.76,0,0,0-2-.64A3,3,0,0,0,193,15.09V26.74h-4.41V10.22Z" transform="translate(-1.05 -3.3)"/><path class="cls-1" d="M207,18.33A9.79,9.79,0,0,1,208,14a7,7,0,0,1,2.72-3,8,8,0,0,1,4.13-1.05,7.54,7.54,0,0,1,5.46,2,8.26,8.26,0,0,1,2.35,5.56l0,1.13a8.59,8.59,0,0,1-2.12,6.09,8.21,8.21,0,0,1-11.39,0A8.76,8.76,0,0,1,207,18.53Zm4.41.31a6.17,6.17,0,0,0,.89,3.6,3.16,3.16,0,0,0,5,0,6.74,6.74,0,0,0,.9-3.93,6.13,6.13,0,0,0-.9-3.58,2.93,2.93,0,0,0-2.53-1.27,2.86,2.86,0,0,0-2.5,1.27A6.85,6.85,0,0,0,211.41,18.64Z" transform="translate(-1.05 -3.3)"/><path class="cls-1" d="M227.06,24.57a2.21,2.21,0,0,1,.71-1.71,2.74,2.74,0,0,1,3.57,0,2.24,2.24,0,0,1,.71,1.71,2.2,2.2,0,0,1-.7,1.68,2.8,2.8,0,0,1-3.59,0A2.17,2.17,0,0,1,227.06,24.57Z" transform="translate(-1.05 -3.3)"/></g></g></svg>